<svg xmlns="http://www.w3.org/2000/svg" xmlns:xlink="http://www.w3.org/1999/xlink" width="443" zoomAndPan="magnify" viewBox="0 0 332.25 383.999986" height="512" preserveAspectRatio="xMidYMid meet" version="1.0"><defs><clipPath id="da7d76cc43"><path d="M 81 0.433594 L 249 0.433594 L 249 177 L 81 177 Z M 81 0.433594 " clip-rule="nonzero"/></clipPath><clipPath id="300e86b1db"><path d="M 0 180 L 330 180 L 330 383.566406 L 0 383.566406 Z M 0 180 " clip-rule="nonzero"/></clipPath><clipPath id="8b8b989377"><path d="M 272.847656 322.503906 L 290.367188 322.503906 L 290.367188 337 L 272.847656 337 Z M 272.847656 322.503906 " clip-rule="nonzero"/></clipPath><clipPath id="9c0ea5e408"><path d="M 279.808594 323.105469 C 289.238281 329.6875 289.761719 330.214844 290.058594 331.109375 C 290.359375 331.933594 290.359375 333.054688 290.136719 333.878906 C 289.835938 334.777344 289.238281 335.675781 288.414062 336.125 C 287.441406 336.722656 285.421875 336.949219 284.296875 336.648438 C 283.398438 336.347656 282.578125 335.675781 282.128906 334.851562 C 281.605469 333.804688 281.378906 331.785156 281.902344 330.660156 C 282.425781 329.613281 284 328.34375 285.195312 328.191406 C 286.394531 327.96875 288.265625 328.714844 289.085938 329.464844 C 289.835938 330.0625 290.210938 331.109375 290.285156 332.007812 C 290.433594 332.90625 290.136719 334.03125 289.6875 334.777344 C 289.238281 335.527344 288.414062 336.273438 287.589844 336.574219 C 286.769531 336.949219 285.945312 337.097656 284.746094 336.796875 C 282.425781 336.199219 276.742188 332.308594 274.871094 330.511719 C 273.820312 329.539062 273.222656 328.867188 273 327.894531 C 272.773438 326.996094 272.847656 325.648438 273.296875 324.75 C 273.746094 323.925781 274.71875 322.953125 275.691406 322.65625 C 276.742188 322.28125 279.808594 323.105469 279.808594 323.105469 " clip-rule="nonzero"/></clipPath></defs><path fill="#4377c3" d="M 243.457031 254.167969 C 236.265625 254.148438 230.304688 248.160156 230.3125 240.964844 C 230.332031 233.769531 236.324219 227.800781 243.519531 227.816406 C 250.710938 227.828125 256.675781 233.824219 256.660156 241.019531 C 256.640625 248.214844 250.648438 254.1875 243.457031 254.167969 " fill-opacity="1" fill-rule="nonzero"/><g clip-path="url(#da7d76cc43)"><path fill="#4377c3" d="M 248.03125 88.441406 C 248.03125 137.007812 210.769531 176.386719 164.808594 176.386719 C 118.847656 176.386719 81.585938 137.007812 81.585938 88.441406 C 81.585938 39.875 118.847656 0.5 164.808594 0.5 C 210.769531 0.5 248.03125 39.875 248.03125 88.441406 " fill-opacity="1" fill-rule="nonzero"/></g><g clip-path="url(#300e86b1db)"><path fill="#4377c3" d="M 236.972656 327.453125 C 231.988281 327.488281 226.996094 327.460938 221.785156 327.460938 C 221.785156 332.359375 221.792969 337.0625 221.785156 341.773438 C 221.785156 345.695312 220.789062 346.679688 216.851562 346.679688 C 213.023438 346.679688 209.199219 346.707031 205.378906 346.671875 C 202.539062 346.644531 201.335938 345.417969 201.324219 342.570312 C 201.289062 337.636719 201.308594 332.707031 201.308594 327.472656 C 198.523438 327.472656 195.84375 327.472656 193.160156 327.460938 C 190.730469 327.460938 188.289062 327.507812 185.859375 327.453125 C 183.414062 327.390625 182.152344 326.132812 182.128906 323.664062 C 182.074219 319.421875 182.082031 315.183594 182.117188 310.933594 C 182.144531 308.234375 183.40625 307.011719 186.117188 306.992188 C 191.109375 306.957031 196.101562 306.984375 201.308594 306.984375 C 201.308594 301.847656 201.308594 297.054688 201.316406 292.257812 C 201.324219 288.894531 202.453125 287.777344 205.839844 287.765625 C 209.730469 287.757812 213.625 287.75 217.519531 287.777344 C 220.605469 287.785156 221.773438 288.984375 221.785156 292.089844 C 221.800781 296.683594 221.800781 301.28125 221.808594 305.867188 C 221.808594 306 221.871094 306.132812 221.96875 306.566406 C 224.648438 306.566406 227.398438 306.566406 230.144531 306.566406 C 232.511719 306.566406 234.878906 306.523438 237.238281 306.578125 C 239.703125 306.636719 240.945312 307.890625 240.972656 310.363281 C 241.027344 314.746094 241.015625 319.128906 240.980469 323.515625 C 240.953125 326.210938 239.695312 327.445312 236.972656 327.453125 Z M 328.53125 328.554688 C 326.953125 318.109375 325.871094 307.605469 324.453125 297.136719 C 323.15625 287.5 322.121094 277.8125 320.25 268.292969 C 315.300781 243.09375 302.203125 222.644531 282.722656 206.222656 C 269.757812 195.292969 254.921875 187.734375 238.640625 183.019531 C 235.925781 182.242188 233.144531 181.707031 229.898438 180.945312 C 231.464844 182.800781 232.664062 184.15625 233.78125 185.558594 C 241.125 194.839844 246.621094 205.007812 248.535156 216.84375 C 248.625 217.367188 248.804688 217.746094 249.035156 218.050781 C 259.851562 220.570312 267.914062 230.257812 267.914062 241.84375 C 267.914062 255.339844 256.980469 266.289062 243.480469 266.289062 C 229.996094 266.289062 219.0625 255.339844 219.0625 241.84375 C 219.0625 230.699219 226.519531 221.304688 236.707031 218.367188 C 234.179688 205.539062 226.875 195.460938 217.640625 186.304688 C 216.816406 187.226562 216.160156 187.9375 215.53125 188.664062 C 204.117188 201.882812 192.734375 215.121094 181.3125 228.332031 C 172.398438 238.625 157.316406 238.710938 148.394531 228.457031 C 139.039062 217.695312 129.808594 206.816406 120.515625 196 C 118.140625 193.234375 115.734375 190.492188 113.199219 187.5625 C 102.515625 204.199219 96.023438 221.882812 94.5 241.347656 C 95.269531 241.542969 95.871094 241.710938 96.484375 241.828125 C 114.539062 245.457031 128.761719 261.84375 129.402344 280.253906 C 129.753906 290.410156 129.535156 300.578125 129.488281 310.746094 C 129.480469 314.207031 126.695312 316.957031 123.230469 317 C 117.199219 317.0625 111.160156 317.046875 105.121094 317 C 103.71875 318.171875 101.9375 318.910156 99.96875 318.910156 C 95.5 318.910156 91.882812 315.289062 91.882812 310.816406 C 91.882812 306.347656 95.5 302.726562 99.96875 302.726562 C 101.867188 302.726562 103.585938 303.398438 104.960938 304.5 C 109.039062 304.429688 113.128906 304.484375 117.269531 304.484375 C 117.324219 304.003906 117.386719 303.738281 117.386719 303.480469 C 117.386719 296.097656 117.410156 288.714844 117.339844 281.34375 C 117.324219 279.753906 117.039062 278.160156 116.703125 276.605469 C 113.339844 260.957031 98.167969 251.195312 83.273438 253.441406 C 71.105469 255.277344 59.863281 266.03125 58.601562 278.292969 C 58.027344 283.945312 58.238281 289.683594 58.140625 295.378906 C 58.089844 298.351562 58.132812 301.324219 58.132812 304.484375 C 61.695312 304.484375 65.121094 304.464844 68.523438 304.484375 C 69.898438 303.398438 71.609375 302.726562 73.5 302.726562 C 77.960938 302.726562 81.585938 306.347656 81.585938 310.816406 C 81.585938 315.289062 77.960938 318.910156 73.5 318.910156 C 71.53125 318.910156 69.757812 318.179688 68.355469 317.011719 C 62.992188 317.054688 57.625 317.0625 52.261719 316.992188 C 48.722656 316.949219 46.046875 314.109375 46.019531 310.488281 C 45.976562 304.019531 45.957031 297.542969 46.027344 291.066406 C 46.074219 286.550781 45.867188 281.984375 46.480469 277.527344 C 48.636719 261.789062 57.253906 250.753906 71.71875 244.355469 C 74.917969 242.945312 78.394531 242.171875 81.90625 241.054688 C 83.46875 219.058594 90.996094 198.9375 103.019531 180.226562 C 102.578125 180.226562 102.382812 180.199219 102.1875 180.226562 C 85.144531 183.296875 69.4375 189.675781 55.1875 199.507812 C 42.738281 208.101562 32.378906 218.777344 24.160156 231.5 C 13.910156 247.363281 8.828125 264.929688 6.769531 283.542969 C 5.59375 294.171875 4.09375 304.777344 2.796875 315.394531 C 1.964844 322.21875 0.804688 329.042969 0.527344 335.890625 C -0.109375 352.027344 10.628906 366.144531 26.269531 369.613281 C 36.761719 371.9375 47.367188 373.738281 57.980469 375.441406 C 67.648438 376.988281 77.355469 378.230469 87.085938 379.347656 C 96.742188 380.457031 106.433594 381.421875 116.136719 382.097656 C 126.191406 382.808594 136.273438 383.445312 146.347656 383.480469 C 164.429688 383.542969 182.519531 383.417969 200.589844 382.816406 C 212.242188 382.425781 223.886719 381.191406 235.5 380.046875 C 244.964844 379.117188 254.414062 377.945312 263.816406 376.515625 C 274.855469 374.847656 285.824219 372.746094 296.839844 370.890625 C 303.765625 369.730469 310.414062 367.894531 315.992188 363.375 C 327.175781 354.308594 330.640625 342.507812 328.53125 328.554688 " fill-opacity="1" fill-rule="nonzero"/></g><g clip-path="url(#8b8b989377)"><g clip-path="url(#9c0ea5e408)"><path fill="#4377c3" d="M 270.003906 319.660156 L 293.367188 319.660156 L 293.367188 339.867188 L 270.003906 339.867188 Z M 270.003906 319.660156 " fill-opacity="1" fill-rule="nonzero"/></g></g></svg>