<svg xmlns="http://www.w3.org/2000/svg" xmlns:xlink="http://www.w3.org/1999/xlink" width="1280" zoomAndPan="magnify" viewBox="0 0 960 959.999988" height="1280" preserveAspectRatio="xMidYMid meet" version="1.0"><defs><clipPath id="5283232573"><path d="M 314.160156 468 L 645 468 L 645 672 L 314.160156 672 Z M 314.160156 468 " clip-rule="nonzero"/></clipPath><clipPath id="4219364be2"><path d="M 587.621094 610.796875 L 605.183594 610.796875 L 605.183594 625.351562 L 587.621094 625.351562 Z M 587.621094 610.796875 " clip-rule="nonzero"/></clipPath><clipPath id="fdb6ec93ee"><path d="M 594.601562 611.398438 C 604.050781 618 604.574219 618.523438 604.875 619.425781 C 605.175781 620.25 605.175781 621.375 604.949219 622.199219 C 604.648438 623.101562 604.050781 624 603.226562 624.449219 C 602.25 625.050781 600.226562 625.273438 599.101562 624.976562 C 598.199219 624.675781 597.375 624 596.925781 623.175781 C 596.398438 622.125 596.175781 620.101562 596.699219 618.976562 C 597.226562 617.925781 598.800781 616.648438 600 616.5 C 601.199219 616.273438 603.074219 617.023438 603.898438 617.773438 C 604.648438 618.375 605.023438 619.425781 605.101562 620.324219 C 605.25 621.226562 604.949219 622.351562 604.5 623.101562 C 604.050781 623.851562 603.226562 624.601562 602.398438 624.898438 C 601.574219 625.273438 600.75 625.425781 599.550781 625.125 C 597.226562 624.523438 591.523438 620.625 589.648438 618.824219 C 588.601562 617.851562 588 617.175781 587.773438 616.199219 C 587.550781 615.300781 587.625 613.949219 588.074219 613.050781 C 588.523438 612.226562 589.5 611.25 590.476562 610.949219 C 591.523438 610.574219 594.601562 611.398438 594.601562 611.398438 " clip-rule="nonzero"/></clipPath></defs><path fill="#4377c3" d="M 558.164062 542.308594 C 550.957031 542.289062 544.984375 536.289062 544.992188 529.078125 C 545.011719 521.863281 551.019531 515.878906 558.226562 515.898438 C 565.433594 515.90625 571.417969 521.917969 571.398438 529.128906 C 571.382812 536.339844 565.375 542.324219 558.164062 542.308594 " fill-opacity="1" fill-rule="nonzero"/><path fill="#4377c3" d="M 562.75 376.210938 C 562.75 424.886719 525.40625 464.347656 479.339844 464.347656 C 433.277344 464.347656 395.929688 424.886719 395.929688 376.210938 C 395.929688 327.53125 433.277344 288.070312 479.339844 288.070312 C 525.40625 288.070312 562.75 327.53125 562.75 376.210938 " fill-opacity="1" fill-rule="nonzero"/><g clip-path="url(#5283232573)"><path fill="#4377c3" d="M 551.667969 615.757812 C 546.671875 615.792969 541.667969 615.769531 536.445312 615.769531 C 536.445312 620.675781 536.453125 625.390625 536.445312 630.109375 C 536.445312 634.042969 535.449219 635.027344 531.503906 635.027344 C 527.664062 635.027344 523.832031 635.054688 520 635.019531 C 517.15625 634.992188 515.949219 633.765625 515.941406 630.910156 C 515.90625 625.96875 515.921875 621.023438 515.921875 615.777344 C 513.132812 615.777344 510.449219 615.777344 507.753906 615.769531 C 505.320312 615.769531 502.875 615.8125 500.441406 615.757812 C 497.988281 615.695312 496.726562 614.433594 496.699219 611.960938 C 496.644531 607.710938 496.652344 603.460938 496.691406 599.203125 C 496.714844 596.5 497.976562 595.269531 500.699219 595.253906 C 505.703125 595.21875 510.707031 595.246094 515.921875 595.246094 C 515.921875 590.09375 515.921875 585.292969 515.929688 580.484375 C 515.941406 577.113281 517.070312 575.992188 520.464844 575.984375 C 524.367188 575.976562 528.265625 575.964844 532.167969 575.992188 C 535.261719 576 536.433594 577.203125 536.445312 580.3125 C 536.460938 584.921875 536.460938 589.527344 536.46875 594.125 C 536.46875 594.257812 536.53125 594.390625 536.628906 594.828125 C 539.316406 594.828125 542.070312 594.828125 544.824219 594.828125 C 547.199219 594.828125 549.570312 594.78125 551.933594 594.835938 C 554.40625 594.898438 555.648438 596.152344 555.675781 598.632812 C 555.730469 603.023438 555.722656 607.417969 555.6875 611.8125 C 555.660156 614.515625 554.398438 615.75 551.667969 615.757812 Z M 643.433594 616.863281 C 641.851562 606.394531 640.765625 595.867188 639.34375 585.375 C 638.046875 575.714844 637.007812 566.007812 635.132812 556.464844 C 630.171875 531.210938 617.046875 510.714844 597.519531 494.253906 C 584.527344 483.300781 569.65625 475.722656 553.339844 471 C 550.621094 470.21875 547.828125 469.683594 544.574219 468.921875 C 546.148438 470.777344 547.347656 472.140625 548.46875 473.542969 C 555.828125 482.84375 561.339844 493.035156 563.257812 504.898438 C 563.347656 505.421875 563.523438 505.804688 563.753906 506.109375 C 574.597656 508.632812 582.675781 518.34375 582.675781 529.957031 C 582.675781 543.480469 571.71875 554.457031 558.191406 554.457031 C 544.675781 554.457031 533.714844 543.480469 533.714844 529.957031 C 533.714844 518.789062 541.191406 509.371094 551.402344 506.429688 C 548.867188 493.570312 541.546875 483.46875 532.292969 474.292969 C 531.46875 475.214844 530.808594 475.925781 530.179688 476.65625 C 518.738281 489.90625 507.328125 503.171875 495.882812 516.414062 C 486.949219 526.730469 471.832031 526.816406 462.890625 516.539062 C 453.515625 505.753906 444.261719 494.851562 434.949219 484.011719 C 432.566406 481.234375 430.15625 478.488281 427.617188 475.554688 C 416.90625 492.226562 410.398438 509.949219 408.871094 529.460938 C 409.644531 529.65625 410.25 529.824219 410.863281 529.9375 C 428.957031 533.574219 443.214844 550 443.851562 568.453125 C 444.207031 578.632812 443.988281 588.824219 443.941406 599.015625 C 443.933594 602.484375 441.140625 605.238281 437.667969 605.285156 C 431.625 605.347656 425.570312 605.328125 419.519531 605.285156 C 418.113281 606.457031 416.328125 607.195312 414.355469 607.195312 C 409.875 607.195312 406.25 603.566406 406.25 599.085938 C 406.25 594.605469 409.875 590.976562 414.355469 590.976562 C 416.257812 590.976562 417.980469 591.652344 419.359375 592.753906 C 423.445312 592.683594 427.542969 592.738281 431.695312 592.738281 C 431.75 592.257812 431.808594 591.988281 431.808594 591.730469 C 431.808594 584.332031 431.835938 576.933594 431.765625 569.546875 C 431.75 567.953125 431.464844 566.351562 431.125 564.796875 C 427.757812 549.109375 412.550781 539.328125 397.621094 541.578125 C 385.425781 543.417969 374.15625 554.199219 372.894531 566.488281 C 372.316406 572.152344 372.53125 577.902344 372.433594 583.613281 C 372.378906 586.59375 372.421875 589.570312 372.421875 592.738281 C 375.996094 592.738281 379.425781 592.71875 382.839844 592.738281 C 384.21875 591.652344 385.933594 590.976562 387.824219 590.976562 C 392.296875 590.976562 395.929688 594.605469 395.929688 599.085938 C 395.929688 603.566406 392.296875 607.195312 387.824219 607.195312 C 385.851562 607.195312 384.074219 606.464844 382.671875 605.292969 C 377.292969 605.335938 371.917969 605.347656 366.539062 605.273438 C 362.992188 605.230469 360.308594 602.386719 360.28125 598.757812 C 360.238281 592.273438 360.222656 585.78125 360.292969 579.292969 C 360.335938 574.765625 360.132812 570.1875 360.746094 565.722656 C 362.90625 549.945312 371.542969 538.886719 386.039062 532.472656 C 389.246094 531.058594 392.730469 530.285156 396.25 529.164062 C 397.816406 507.121094 405.359375 486.953125 417.414062 468.199219 C 416.96875 468.199219 416.773438 468.171875 416.578125 468.199219 C 399.496094 471.277344 383.753906 477.671875 369.472656 487.523438 C 356.996094 496.140625 346.613281 506.835938 338.375 519.589844 C 328.101562 535.488281 323.007812 553.09375 320.945312 571.75 C 319.765625 582.402344 318.261719 593.03125 316.964844 603.675781 C 316.128906 610.511719 314.964844 617.351562 314.691406 624.214844 C 314.050781 640.390625 324.8125 654.539062 340.492188 658.015625 C 351.003906 660.34375 361.632812 662.148438 372.273438 663.855469 C 381.960938 665.40625 391.691406 666.648438 401.441406 667.769531 C 411.121094 668.882812 420.835938 669.851562 430.558594 670.527344 C 440.636719 671.238281 450.742188 671.878906 460.835938 671.914062 C 478.960938 671.976562 497.089844 671.851562 515.203125 671.246094 C 526.882812 670.855469 538.550781 669.621094 550.191406 668.472656 C 559.675781 667.539062 569.148438 666.363281 578.570312 664.933594 C 589.636719 663.261719 600.628906 661.152344 611.667969 659.296875 C 618.609375 658.128906 625.277344 656.289062 630.867188 651.765625 C 642.074219 642.675781 645.546875 630.847656 643.433594 616.863281 " fill-opacity="1" fill-rule="nonzero"/></g><g clip-path="url(#4219364be2)"><g clip-path="url(#fdb6ec93ee)"><path fill="#4377c3" d="M 584.773438 607.949219 L 608.1875 607.949219 L 608.1875 628.199219 L 584.773438 628.199219 Z M 584.773438 607.949219 " fill-opacity="1" fill-rule="nonzero"/></g></g></svg>